name rise49.25peak52.1432fall72.8391.mot
datacolumns 19
datarows 17
range 3.32499100000000 3.35165700000000
endheader
time	ground_force1_vx	ground_force1_vy	ground_force1_vz	ground_force1_px	ground_force1_py	ground_force1_pz	ground_force2_vx	ground_force2_vy	ground_force2_vz	ground_force2_px	ground_force2_py	ground_force2_pz	ground_torque1_x	ground_torque1_y	ground_torque1_z	ground_torque2_x	ground_torque2_y	ground_torque2_z	
3.32499100000000	-37.47313500000000	797.13529200000005	57.51511000000000	0.14592900000000	0.00000000000000	0.11121400000000	-3.60335600000000	11.19693200000000	0.93051800000000	0.00000000000000	0.00000000000000	0.00000000000000	0.00000000000000	26.21512800000000	0.00000000000000	0.00000000000000	0.00746400000000	0.00000000000000	
3.32665200000000	-38.10280400000000	796.29261199999996	57.45629800000000	0.14469000000000	0.00000000000000	0.11113600000000	-4.77889900000000	16.08882400000000	1.26809600000000	0.00000000000000	0.00000000000000	0.00000000000000	0.00000000000000	26.14894100000000	0.00000000000000	0.00000000000000	0.02247200000000	0.00000000000000	
3.32831800000000	-38.74649900000000	795.35462299999995	57.37683900000000	0.14345500000000	0.00000000000000	0.11105500000000	-6.00850800000000	21.61201200000000	1.63181800000000	0.00000000000000	0.00000000000000	0.00000000000000	0.00000000000000	26.08101600000000	0.00000000000000	0.00000000000000	0.04216500000000	0.00000000000000	
3.32998900000000	-39.40408400000000	794.31873099999996	57.27620200000000	0.14222600000000	0.00000000000000	0.11097100000000	-7.24590000000000	27.66966700000000	2.01072300000000	0.32334000000000	0.00000000000000	-0.08739600000000	0.00000000000000	26.01148300000000	0.00000000000000	0.00000000000000	0.08373300000000	0.00000000000000	
3.33165200000000	-40.07537100000000	793.18231800000001	57.15388800000000	0.14100500000000	0.00000000000000	0.11088300000000	-8.44248000000000	34.14667700000000	2.39288300000000	0.32814600000000	0.00000000000000	-0.08788400000000	0.00000000000000	25.94046300000000	0.00000000000000	0.00000000000000	0.13995700000000	0.00000000000000	
3.33332100000000	-40.76011800000000	791.94275000000005	57.00943300000000	0.13979400000000	0.00000000000000	0.11079200000000	-9.55096100000000	40.91964700000000	2.76630500000000	0.33276600000000	0.00000000000000	-0.08828800000000	0.00000000000000	25.86807400000000	0.00000000000000	0.00000000000000	0.20903700000000	0.00000000000000	
3.33499100000000	-41.45802500000000	790.59737299999995	56.84240900000000	0.13859500000000	0.00000000000000	0.11069800000000	-10.52877500000000	47.86721500000000	3.11980300000000	0.33722200000000	0.00000000000000	-0.08862500000000	0.00000000000000	25.79442300000000	0.00000000000000	0.00000000000000	0.29083600000000	0.00000000000000	
3.33665100000000	-42.16873500000000	789.14351999999997	56.65242500000000	0.13740900000000	0.00000000000000	0.11060000000000	-11.34083500000000	54.87931100000000	3.44374100000000	0.34153000000000	0.00000000000000	-0.08890400000000	0.00000000000000	25.71960700000000	0.00000000000000	0.00000000000000	0.38477000000000	0.00000000000000	
3.33832000000000	-42.89183600000000	787.57850499999995	56.43912800000000	0.13623700000000	0.00000000000000	0.11049800000000	-11.96139000000000	61.86437600000000	3.73055700000000	0.34570400000000	0.00000000000000	-0.08913700000000	0.00000000000000	25.64371600000000	0.00000000000000	0.00000000000000	0.48987400000000	0.00000000000000	
3.33998300000000	-43.62685500000000	785.89963100000000	56.20220800000000	0.13508200000000	0.00000000000000	0.11039200000000	-12.37486800000000	68.75402400000000	3.97504600000000	0.34975300000000	0.00000000000000	-0.08933000000000	0.00000000000000	25.56682500000000	0.00000000000000	0.00000000000000	0.60489100000000	0.00000000000000	
3.34165600000000	-44.37325700000000	784.10418600000003	55.94139500000000	0.13394500000000	0.00000000000000	0.11028300000000	-12.57576500000000	75.50506500000000	4.17441000000000	0.35368500000000	0.00000000000000	-0.08948900000000	0.00000000000000	25.48899900000000	0.00000000000000	0.00000000000000	0.72837000000000	0.00000000000000	
3.34332300000000	-45.13045000000000	782.18945199999996	55.65646500000000	0.13282600000000	0.00000000000000	0.11017000000000	-12.56774000000000	82.09911800000000	4.32809500000000	0.35750500000000	0.00000000000000	-0.08962100000000	0.00000000000000	25.41028800000000	0.00000000000000	0.00000000000000	0.85876900000000	0.00000000000000	
3.34499100000000	-45.89777900000000	780.15270299999997	55.34723700000000	0.13172900000000	0.00000000000000	0.11005300000000	-12.36210600000000	88.54023500000000	4.43748000000000	0.36121700000000	0.00000000000000	-0.08972900000000	0.00000000000000	25.33073100000000	0.00000000000000	0.00000000000000	0.99453800000000	0.00000000000000	
3.34665300000000	-46.67452400000000	777.99120800000003	55.01357600000000	0.13065200000000	0.00000000000000	0.10993100000000	-11.97595800000000	94.85109700000000	4.50545400000000	0.36482600000000	0.00000000000000	-0.08981700000000	0.00000000000000	25.25034800000000	0.00000000000000	0.00000000000000	1.13419500000000	0.00000000000000	
3.34831600000000	-47.45990500000000	775.70223799999997	54.65539600000000	0.12959900000000	0.00000000000000	0.10980600000000	-11.43015500000000	101.06831800000000	4.53594700000000	0.36833300000000	0.00000000000000	-0.08988900000000	0.00000000000000	25.16914700000000	0.00000000000000	0.00000000000000	1.27637400000000	0.00000000000000	
3.34998400000000	-48.25307900000000	773.28306399999997	54.27265800000000	0.12856900000000	0.00000000000000	0.10967700000000	-10.74733800000000	107.23742200000000	4.53345200000000	0.37174000000000	0.00000000000000	-0.08994600000000	0.00000000000000	25.08712000000000	0.00000000000000	0.00000000000000	1.41985500000000	0.00000000000000	
3.35165700000000	-49.05313600000000	770.73096799999996	53.86536900000000	0.12756400000000	0.00000000000000	0.10954400000000	-9.95015300000000	113.40795400000000	4.50258800000000	0.37504900000000	0.00000000000000	-0.08999200000000	0.00000000000000	25.00424000000000	0.00000000000000	0.00000000000000	1.56357500000000	0.00000000000000	
